<svg width="68" height="69" viewBox="0 0 68 69" fill="none" xmlns="http://www.w3.org/2000/svg">
<path d="M31.8923 34.1877C32.5973 34.1874 33.3017 34.2303 34.0015 34.3159C29.8327 34.8308 25.9959 36.8529 23.2136 40.0014C20.4313 43.1498 18.8956 47.2073 18.8956 51.4099C18.8956 55.6124 20.4313 59.67 23.2136 62.8184C25.9959 65.9668 29.8327 67.9889 34.0015 68.5038C31.6699 68.7912 29.3042 68.5981 27.05 67.9364C24.7958 67.2747 22.7008 66.1583 20.8941 64.656C19.0873 63.1538 17.607 61.2974 16.5443 59.2013C15.4816 57.1051 14.859 54.8135 14.7148 52.4675C14.5706 50.1216 14.9079 47.7709 15.7059 45.5603C16.5039 43.3496 17.7457 41.3258 19.3548 39.6134C20.964 37.9009 22.9064 36.5362 25.0626 35.6031C27.2188 34.67 29.543 34.1883 31.8923 34.1877Z" fill="white"/>
<mask id="mask0_414_43836" style="mask-type:luminance" maskUnits="userSpaceOnUse" x="14" y="34" width="21" height="35">
<path d="M31.8923 34.1877C32.5973 34.1874 33.3017 34.2303 34.0015 34.3159C29.8327 34.8308 25.9959 36.8529 23.2136 40.0014C20.4313 43.1498 18.8956 47.2073 18.8956 51.4099C18.8956 55.6124 20.4313 59.67 23.2136 62.8184C25.9959 65.9668 29.8327 67.9889 34.0015 68.5038C31.6699 68.7912 29.3042 68.5981 27.05 67.9364C24.7958 67.2747 22.7008 66.1583 20.8941 64.656C19.0873 63.1538 17.607 61.2974 16.5443 59.2013C15.4816 57.1051 14.859 54.8135 14.7148 52.4675C14.5706 50.1216 14.9079 47.7709 15.7059 45.5603C16.5039 43.3496 17.7457 41.3258 19.3548 39.6134C20.964 37.9009 22.9064 36.5362 25.0626 35.6031C27.2188 34.67 29.543 34.1883 31.8923 34.1877Z" fill="white"/>
</mask>
<g mask="url(#mask0_414_43836)">
<path d="M49.0225 52.1958C49.4532 42.6955 42.1046 34.6446 32.609 34.2137C23.1134 33.7828 15.0665 41.135 14.6358 50.6353C14.2051 60.1356 21.5537 68.1864 31.0493 68.6174C40.5449 69.0483 48.5918 61.6961 49.0225 52.1958Z" fill="white"/>
</g>
<path d="M33.0559 32.4224C33.409 33.0338 33.7241 33.6665 33.9993 34.3167C31.4692 30.9618 27.8004 28.6481 23.6838 27.8114C19.5672 26.9747 15.2869 27.6727 11.6489 29.7739C8.01092 31.875 5.26626 35.2345 3.93181 39.2195C2.59735 43.2046 2.76517 47.5402 4.40367 51.4101C2.98795 49.5334 1.97123 47.3867 1.41613 45.102C0.861037 42.8174 0.779322 40.4432 1.17602 38.1257C1.57272 35.8083 2.43943 33.5966 3.72278 31.627C5.00612 29.6573 6.67892 27.9714 8.63814 26.6731C10.5974 25.3747 12.8015 24.4914 15.1149 24.0775C17.4282 23.6637 19.8017 23.728 22.0893 24.2666C24.3768 24.8053 26.5299 25.8067 28.416 27.2094C30.302 28.612 31.8811 30.3861 33.0559 32.4224Z" fill="white"/>
<mask id="mask1_414_43836" style="mask-type:luminance" maskUnits="userSpaceOnUse" x="0" y="23" width="34" height="29">
<path d="M33.0559 32.4224C33.409 33.0338 33.7241 33.6665 33.9993 34.3167C31.4692 30.9618 27.8004 28.6481 23.6838 27.8114C19.5672 26.9747 15.2869 27.6727 11.6489 29.7739C8.01092 31.875 5.26626 35.2345 3.93181 39.2195C2.59735 43.2046 2.76517 47.5402 4.40367 51.4101C2.98795 49.5334 1.97123 47.3867 1.41613 45.102C0.861037 42.8174 0.779322 40.4432 1.17602 38.1257C1.57272 35.8083 2.43943 33.5966 3.72278 31.627C5.00612 29.6573 6.67892 27.9714 8.63814 26.6731C10.5974 25.3747 12.8015 24.4914 15.1149 24.0775C17.4282 23.6637 19.8017 23.728 22.0893 24.2666C24.3768 24.8053 26.5299 25.8067 28.416 27.2094C30.302 28.612 31.8811 30.3861 33.0559 32.4224Z" fill="white"/>
</mask>
<g mask="url(#mask1_414_43836)">
<path d="M18.1128 58.2049C27.6181 58.2049 35.3238 50.4955 35.3238 40.9854C35.3238 31.4753 27.6181 23.7659 18.1128 23.7659C8.60737 23.7659 0.901733 31.4753 0.901733 40.9854C0.901733 50.4955 8.60737 58.2049 18.1128 58.2049Z" fill="white"/>
</g>
<path d="M35.1656 32.5499C34.8121 33.1605 34.4231 33.7498 34.0008 34.3149C35.6393 30.445 35.8072 26.1094 34.4727 22.1243C33.1382 18.1393 30.3936 14.7799 26.7556 12.6787C23.1176 10.5775 18.8373 9.87955 14.7207 10.7163C10.6041 11.553 6.93529 13.8666 4.40515 17.2215C4.68106 16.5716 4.99613 15.939 5.34861 15.3272C7.65136 11.4111 11.4075 8.56391 15.7988 7.40586C20.1902 6.2478 24.861 6.87269 28.794 9.14442C32.727 11.4162 35.6034 15.1507 36.7968 19.5346C37.9902 23.9185 37.4039 28.5966 35.1656 32.5499Z" fill="white"/>
<mask id="mask2_414_43836" style="mask-type:luminance" maskUnits="userSpaceOnUse" x="4" y="6" width="34" height="29">
<path d="M35.1656 32.5499C34.8121 33.1605 34.4231 33.7498 34.0008 34.3149C35.6393 30.445 35.8072 26.1094 34.4727 22.1243C33.1382 18.1393 30.3936 14.7799 26.7556 12.6787C23.1176 10.5775 18.8373 9.87955 14.7207 10.7163C10.6041 11.553 6.93529 13.8666 4.40515 17.2215C4.68106 16.5716 4.99613 15.939 5.34861 15.3272C7.65136 11.4111 11.4075 8.56391 15.7988 7.40586C20.1902 6.2478 24.861 6.87269 28.794 9.14442C32.727 11.4162 35.6034 15.1507 36.7968 19.5346C37.9902 23.9185 37.4039 28.5966 35.1656 32.5499Z" fill="white"/>
</mask>
<g mask="url(#mask2_414_43836)">
<path d="M20.2834 41.1053C29.7888 41.1053 37.4944 33.3959 37.4944 23.8858C37.4944 14.3758 29.7888 6.66634 20.2834 6.66634C10.778 6.66634 3.07239 14.3758 3.07239 23.8858C3.07239 33.3959 10.778 41.1053 20.2834 41.1053Z" fill="white"/>
</g>
<path d="M36.1131 34.4454C35.408 34.4456 34.7036 34.4028 34.0038 34.3172C38.1726 33.8022 42.0094 31.7802 44.7917 28.6317C47.574 25.4833 49.1097 21.4258 49.1097 17.2232C49.1097 13.0207 47.574 8.96312 44.7917 5.81468C42.0094 2.66624 38.1726 0.64417 34.0038 0.129247C36.3354 -0.15816 38.7011 0.034953 40.9553 0.696693C43.2095 1.35843 45.3045 2.4748 47.1112 3.97706C48.918 5.47932 50.3983 7.33566 51.461 9.43182C52.5237 11.528 53.1463 13.8196 53.2905 16.1655C53.4347 18.5115 53.0974 20.8622 52.2994 23.0728C51.5015 25.2834 50.2597 27.3073 48.6505 29.0197C47.0414 30.7321 45.0989 32.0969 42.9427 33.03C40.7866 33.9631 38.4623 34.4448 36.1131 34.4454Z" fill="white"/>
<mask id="mask3_414_43836" style="mask-type:luminance" maskUnits="userSpaceOnUse" x="34" y="0" width="20" height="35">
<path d="M36.1131 34.4454C35.408 34.4456 34.7036 34.4028 34.0038 34.3172C38.1726 33.8022 42.0094 31.7802 44.7917 28.6317C47.574 25.4833 49.1097 21.4258 49.1097 17.2232C49.1097 13.0207 47.574 8.96312 44.7917 5.81468C42.0094 2.66624 38.1726 0.64417 34.0038 0.129247C36.3354 -0.15816 38.7011 0.034953 40.9553 0.696693C43.2095 1.35843 45.3045 2.4748 47.1112 3.97706C48.918 5.47932 50.3983 7.33566 51.461 9.43182C52.5237 11.528 53.1463 13.8196 53.2905 16.1655C53.4347 18.5115 53.0974 20.8622 52.2994 23.0728C51.5015 25.2834 50.2597 27.3073 48.6505 29.0197C47.0414 30.7321 45.0989 32.0969 42.9427 33.03C40.7866 33.9631 38.4623 34.4448 36.1131 34.4454Z" fill="white"/>
</mask>
<g mask="url(#mask3_414_43836)">
<path d="M36.172 34.4359C45.6773 34.4359 53.383 26.7265 53.383 17.2164C53.383 7.70635 45.6773 -0.00308228 36.172 -0.00308228C26.6666 -0.00308228 18.9609 7.70635 18.9609 17.2164C18.9609 26.7265 26.6666 34.4359 36.172 34.4359Z" fill="white"/>
</g>
<path d="M34.9442 36.2065C34.5911 35.5951 34.276 34.9625 34.0007 34.3123C36.5309 37.6672 40.1997 39.9808 44.3163 40.8175C48.4328 41.6542 52.7132 40.9563 56.3512 38.8551C59.9892 36.7539 62.7338 33.3945 64.0683 29.4095C65.4027 25.4244 65.2349 21.0888 63.5964 17.2189C65.0121 19.0956 66.0288 21.2423 66.5839 23.527C67.139 25.8116 67.2207 28.1858 66.8241 30.5033C66.4274 32.8207 65.5606 35.0323 64.2773 37.002C62.994 38.9716 61.3212 40.6576 59.3619 41.9559C57.4027 43.2543 55.1985 44.1376 52.8852 44.5515C50.5719 44.9653 48.1983 44.9009 45.9108 44.3623C43.6233 43.8237 41.4702 42.8223 39.5841 41.4196C37.6981 40.017 36.119 38.2428 34.9442 36.2065Z" fill="white"/>
<mask id="mask4_414_43836" style="mask-type:luminance" maskUnits="userSpaceOnUse" x="34" y="17" width="34" height="28">
<path d="M34.9442 36.2065C34.5911 35.5951 34.276 34.9625 34.0007 34.3123C36.5309 37.6672 40.1997 39.9808 44.3163 40.8175C48.4328 41.6542 52.7132 40.9563 56.3512 38.8551C59.9892 36.7539 62.7338 33.3945 64.0683 29.4095C65.4027 25.4244 65.2349 21.0888 63.5964 17.2189C65.0121 19.0956 66.0288 21.2423 66.5839 23.527C67.139 25.8116 67.2207 28.1858 66.8241 30.5033C66.4274 32.8207 65.5606 35.0323 64.2773 37.002C62.994 38.9716 61.3212 40.6576 59.3619 41.9559C57.4027 43.2543 55.1985 44.1376 52.8852 44.5515C50.5719 44.9653 48.1983 44.9009 45.9108 44.3623C43.6233 43.8237 41.4702 42.8223 39.5841 41.4196C37.6981 40.017 36.119 38.2428 34.9442 36.2065Z" fill="white"/>
</mask>
<g mask="url(#mask4_414_43836)">
<path d="M49.889 44.8677C59.3944 44.8677 67.1 37.1583 67.1 27.6482C67.1 18.1381 59.3944 10.4287 49.889 10.4287C40.3836 10.4287 32.678 18.1381 32.678 27.6482C32.678 37.1583 40.3836 44.8677 49.889 44.8677Z" fill="white"/>
</g>
<path d="M32.835 36.0809C33.1886 35.4703 33.5775 34.881 33.9998 34.3159C32.3613 38.1858 32.1935 42.5214 33.5279 46.5065C34.8624 50.4915 37.6071 53.851 41.2451 55.9521C44.8831 58.0533 49.1634 58.7513 53.28 57.9146C57.3965 57.0779 61.0653 54.7642 63.5955 51.4094C63.3196 52.0593 63.0045 52.6918 62.652 53.3036C60.3602 57.2416 56.6019 60.1104 52.2002 61.2818C47.7986 62.4531 43.1124 61.8316 39.1678 59.5533C35.2233 57.2749 32.3419 53.5255 31.1548 49.126C29.9676 44.7266 30.5725 40.0358 32.835 36.0809Z" fill="white"/>
<mask id="mask5_414_43836" style="mask-type:luminance" maskUnits="userSpaceOnUse" x="30" y="34" width="34" height="28">
<path d="M32.835 36.0809C33.1886 35.4703 33.5775 34.881 33.9998 34.3159C32.3613 38.1858 32.1935 42.5214 33.5279 46.5065C34.8624 50.4915 37.6071 53.851 41.2451 55.9521C44.8831 58.0533 49.1634 58.7513 53.28 57.9146C57.3965 57.0779 61.0653 54.7642 63.5955 51.4094C63.3196 52.0593 63.0045 52.6918 62.652 53.3036C60.3602 57.2416 56.6019 60.1104 52.2002 61.2818C47.7986 62.4531 43.1124 61.8316 39.1678 59.5533C35.2233 57.2749 32.3419 53.5255 31.1548 49.126C29.9676 44.7266 30.5725 40.0358 32.835 36.0809Z" fill="white"/>
</mask>
<g mask="url(#mask5_414_43836)">
<path d="M47.7169 61.9678C57.2223 61.9678 64.9279 54.2583 64.9279 44.7483C64.9279 35.2382 57.2223 27.5287 47.7169 27.5287C38.2115 27.5287 30.5059 35.2382 30.5059 44.7483C30.5059 54.2583 38.2115 61.9678 47.7169 61.9678Z" fill="white"/>
</g>
</svg>
