<svg width="120" height="34" viewBox="0 0 120 34" fill="none" xmlns="http://www.w3.org/2000/svg">
<path d="M15.0171 16.8445C15.3591 16.8444 15.7007 16.8651 16.0402 16.9066C14.0182 17.1562 12.1574 18.1365 10.8079 19.6628C9.45851 21.189 8.71367 23.156 8.71367 25.1932C8.71367 27.2305 9.45851 29.1975 10.8079 30.7238C12.1574 32.25 14.0182 33.2302 16.0402 33.4799C14.9093 33.6192 13.7619 33.5256 12.6686 33.2048C11.5753 32.884 10.5592 32.3428 9.68295 31.6146C8.80666 30.8863 8.08871 29.9864 7.57329 28.9703C7.05787 27.9541 6.7559 26.8432 6.68596 25.706C6.61602 24.5687 6.7796 23.4292 7.16663 22.3575C7.55365 21.2859 8.15593 20.3048 8.93639 19.4747C9.71684 18.6445 10.6589 17.9829 11.7047 17.5306C12.7505 17.0783 13.8777 16.8448 15.0171 16.8445Z" fill="#EE1E24"/>
<mask id="mask0_546_30451" style="mask-type:luminance" maskUnits="userSpaceOnUse" x="6" y="16" width="11" height="18">
<path d="M15.0171 16.8445C15.3591 16.8444 15.7007 16.8651 16.0402 16.9066C14.0182 17.1562 12.1574 18.1365 10.8079 19.6628C9.45851 21.189 8.71367 23.156 8.71367 25.1932C8.71367 27.2305 9.45851 29.1975 10.8079 30.7238C12.1574 32.25 14.0182 33.2302 16.0402 33.4799C14.9093 33.6192 13.7619 33.5256 12.6686 33.2048C11.5753 32.884 10.5592 32.3428 9.68295 31.6146C8.80666 30.8863 8.08871 29.9864 7.57329 28.9703C7.05787 27.9541 6.7559 26.8432 6.68596 25.706C6.61602 24.5687 6.7796 23.4292 7.16663 22.3575C7.55365 21.2859 8.15593 20.3048 8.93639 19.4747C9.71684 18.6445 10.6589 17.9829 11.7047 17.5306C12.7505 17.0783 13.8777 16.8448 15.0171 16.8445Z" fill="white"/>
</mask>
<g mask="url(#mask0_546_30451)">
<path d="M23.3256 25.5743C23.5345 20.9688 19.9704 17.066 15.365 16.8572C10.7595 16.6483 6.85672 20.2124 6.64783 24.8178C6.43894 29.4233 10.0031 33.3261 14.6085 33.535C19.214 33.7439 23.1167 30.1797 23.3256 25.5743Z" fill="#EE1E24"/>
</g>
<path d="M15.5815 15.989C15.7528 16.2853 15.9056 16.592 16.0391 16.9072C14.812 15.2809 13.0326 14.1593 11.036 13.7537C9.03945 13.3481 6.96346 13.6864 5.199 14.705C3.43455 15.7236 2.10337 17.3522 1.45615 19.284C0.808924 21.2158 0.890319 23.3176 1.685 25.1936C0.998367 24.2838 0.50525 23.2432 0.236025 22.1356C-0.0332001 21.0281 -0.0728327 19.8772 0.11957 18.7537C0.311972 17.6303 0.732334 16.5582 1.35476 15.6033C1.9772 14.6485 2.78852 13.8313 3.73875 13.2018C4.68899 12.5724 5.75803 12.1442 6.88001 11.9436C8.002 11.743 9.15318 11.7742 10.2627 12.0353C11.3721 12.2964 12.4164 12.7819 13.3311 13.4618C14.2459 14.1418 15.0118 15.0018 15.5815 15.989Z" fill="#EE1E24"/>
<mask id="mask1_546_30451" style="mask-type:luminance" maskUnits="userSpaceOnUse" x="-1" y="11" width="18" height="15">
<path d="M15.5815 15.989C15.7528 16.2853 15.9056 16.592 16.0391 16.9072C14.812 15.2809 13.0326 14.1593 11.036 13.7537C9.03945 13.3481 6.96346 13.6864 5.199 14.705C3.43455 15.7236 2.10337 17.3522 1.45615 19.284C0.808924 21.2158 0.890319 23.3176 1.685 25.1936C0.998367 24.2838 0.50525 23.2432 0.236025 22.1356C-0.0332001 21.0281 -0.0728327 19.8772 0.11957 18.7537C0.311972 17.6303 0.732334 16.5582 1.35476 15.6033C1.9772 14.6485 2.78852 13.8313 3.73875 13.2018C4.68899 12.5724 5.75803 12.1442 6.88001 11.9436C8.002 11.743 9.15318 11.7742 10.2627 12.0353C11.3721 12.2964 12.4164 12.7819 13.3311 13.4618C14.2459 14.1418 15.0118 15.0018 15.5815 15.989Z" fill="white"/>
</mask>
<g mask="url(#mask1_546_30451)">
<path d="M8.33361 28.4877C12.9438 28.4877 16.6811 24.7504 16.6811 20.1402C16.6811 15.53 12.9438 11.7927 8.33361 11.7927C3.72343 11.7927 -0.0138664 15.53 -0.0138664 20.1402C-0.0138664 24.7504 3.72343 28.4877 8.33361 28.4877Z" fill="#EE1E24"/>
</g>
<path d="M16.6046 16.0505C16.4331 16.3465 16.2445 16.6322 16.0396 16.9061C16.8343 15.0302 16.9157 12.9284 16.2685 10.9965C15.6213 9.0647 14.2901 7.43617 12.5256 6.41758C10.7612 5.39899 8.6852 5.06064 6.68863 5.46625C4.69205 5.87186 2.91265 6.99343 1.68552 8.61977C1.81934 8.30471 1.97215 7.99806 2.1431 7.70151C3.25995 5.80308 5.0817 4.42286 7.21154 3.86147C9.34139 3.30008 11.6068 3.60301 13.5143 4.70427C15.4218 5.80554 16.8169 7.61592 17.3957 9.74109C17.9745 11.8663 17.6902 14.1341 16.6046 16.0505Z" fill="#EE1E24"/>
<mask id="mask2_546_30451" style="mask-type:luminance" maskUnits="userSpaceOnUse" x="1" y="3" width="17" height="14">
<path d="M16.6046 16.0505C16.4331 16.3465 16.2445 16.6322 16.0396 16.9061C16.8343 15.0302 16.9157 12.9284 16.2685 10.9965C15.6213 9.0647 14.2901 7.43617 12.5256 6.41758C10.7612 5.39899 8.6852 5.06064 6.68863 5.46625C4.69205 5.87186 2.91265 6.99343 1.68552 8.61977C1.81934 8.30471 1.97215 7.99806 2.1431 7.70151C3.25995 5.80308 5.0817 4.42286 7.21154 3.86147C9.34139 3.30008 11.6068 3.60301 13.5143 4.70427C15.4218 5.80554 16.8169 7.61592 17.3957 9.74109C17.9745 11.8663 17.6902 14.1341 16.6046 16.0505Z" fill="white"/>
</mask>
<g mask="url(#mask2_546_30451)">
<path d="M9.38693 20.1976C13.9971 20.1976 17.7344 16.4603 17.7344 11.8502C17.7344 7.23998 13.9971 3.50269 9.38693 3.50269C4.77675 3.50269 1.03945 7.23998 1.03945 11.8502C1.03945 16.4603 4.77675 20.1976 9.38693 20.1976Z" fill="#EE1E24"/>
</g>
<path d="M17.0642 16.9693C16.7223 16.9694 16.3806 16.9487 16.0412 16.9071C18.0631 16.6575 19.924 15.6773 21.2734 14.151C22.6228 12.6247 23.3677 10.6578 23.3677 8.62052C23.3677 6.58325 22.6228 4.61628 21.2734 3.09002C19.924 1.56375 18.0631 0.583514 16.0412 0.333895C17.172 0.194569 18.3194 0.288184 19.4127 0.608975C20.506 0.929766 21.5221 1.47095 22.3984 2.1992C23.2747 2.92744 23.9926 3.82734 24.5081 4.84349C25.0235 5.85965 25.3254 6.97054 25.3954 8.10779C25.4653 9.24504 25.3017 10.3846 24.9147 11.4562C24.5277 12.5279 23.9254 13.509 23.145 14.3391C22.3645 15.1692 21.4224 15.8308 20.3766 16.2832C19.3309 16.7355 18.2036 16.969 17.0642 16.9693Z" fill="#EE1E24"/>
<mask id="mask3_546_30451" style="mask-type:luminance" maskUnits="userSpaceOnUse" x="16" y="0" width="10" height="17">
<path d="M17.0642 16.9693C16.7223 16.9694 16.3806 16.9487 16.0412 16.9071C18.0631 16.6575 19.924 15.6773 21.2734 14.151C22.6228 12.6247 23.3677 10.6578 23.3677 8.62052C23.3677 6.58325 22.6228 4.61628 21.2734 3.09002C19.924 1.56375 18.0631 0.583514 16.0412 0.333895C17.172 0.194569 18.3194 0.288184 19.4127 0.608975C20.506 0.929766 21.5221 1.47095 22.3984 2.1992C23.2747 2.92744 23.9926 3.82734 24.5081 4.84349C25.0235 5.85965 25.3254 6.97054 25.3954 8.10779C25.4653 9.24504 25.3017 10.3846 24.9147 11.4562C24.5277 12.5279 23.9254 13.509 23.145 14.3391C22.3645 15.1692 21.4224 15.8308 20.3766 16.2832C19.3309 16.7355 18.2036 16.969 17.0642 16.9693Z" fill="white"/>
</mask>
<g mask="url(#mask3_546_30451)">
<path d="M17.093 16.9647C21.7032 16.9647 25.4404 13.2274 25.4404 8.61725C25.4404 4.00707 21.7032 0.269775 17.093 0.269775C12.4828 0.269775 8.74549 4.00707 8.74549 8.61725C8.74549 13.2274 12.4828 16.9647 17.093 16.9647Z" fill="#EE1E24"/>
</g>
<path d="M16.4972 17.8233C16.326 17.5269 16.1732 17.2202 16.0396 16.905C17.2668 18.5314 19.0462 19.6529 21.0428 20.0585C23.0393 20.4641 25.1153 20.1258 26.8798 19.1072C28.6442 18.0886 29.9754 16.4601 30.6226 14.5283C31.2699 12.5964 31.1885 10.4946 30.3938 8.61865C31.0804 9.5284 31.5735 10.5691 31.8428 11.6766C32.112 12.7841 32.1516 13.9351 31.9592 15.0585C31.7668 16.1819 31.3464 17.2541 30.724 18.2089C30.1016 19.1637 29.2903 19.981 28.34 20.6104C27.3898 21.2398 26.3207 21.668 25.1988 21.8686C24.0768 22.0692 22.9256 22.038 21.8161 21.7769C20.7066 21.5158 19.6624 21.0304 18.7476 20.3504C17.8329 19.6704 17.067 18.8104 16.4972 17.8233Z" fill="#EE1E24"/>
<mask id="mask4_546_30451" style="mask-type:luminance" maskUnits="userSpaceOnUse" x="16" y="8" width="17" height="14">
<path d="M16.4972 17.8233C16.326 17.5269 16.1732 17.2202 16.0396 16.905C17.2668 18.5314 19.0462 19.6529 21.0428 20.0585C23.0393 20.4641 25.1153 20.1258 26.8798 19.1072C28.6442 18.0886 29.9754 16.4601 30.6226 14.5283C31.2699 12.5964 31.1885 10.4946 30.3938 8.61865C31.0804 9.5284 31.5735 10.5691 31.8428 11.6766C32.112 12.7841 32.1516 13.9351 31.9592 15.0585C31.7668 16.1819 31.3464 17.2541 30.724 18.2089C30.1016 19.1637 29.2903 19.981 28.34 20.6104C27.3898 21.2398 26.3207 21.668 25.1988 21.8686C24.0768 22.0692 22.9256 22.038 21.8161 21.7769C20.7066 21.5158 19.6624 21.0304 18.7476 20.3504C17.8329 19.6704 17.067 18.8104 16.4972 17.8233Z" fill="white"/>
</mask>
<g mask="url(#mask4_546_30451)">
<path d="M23.7457 22.0216C28.3559 22.0216 32.0932 18.2843 32.0932 13.6741C32.0932 9.06395 28.3559 5.32666 23.7457 5.32666C19.1355 5.32666 15.3982 9.06395 15.3982 13.6741C15.3982 18.2843 19.1355 22.0216 23.7457 22.0216Z" fill="#EE1E24"/>
</g>
<path d="M15.4742 17.7623C15.6457 17.4664 15.8343 17.1807 16.0391 16.9067C15.2445 18.7827 15.1631 20.8845 15.8103 22.8163C16.4575 24.7482 17.7887 26.3767 19.5531 27.3953C21.3176 28.4139 23.3936 28.7522 25.3902 28.3466C27.3867 27.941 29.1661 26.8194 30.3933 25.1931C30.2594 25.5082 30.1066 25.8148 29.9357 26.1114C28.8241 28.0204 27.0013 29.4111 24.8665 29.9789C22.7317 30.5468 20.4588 30.2455 18.5457 29.141C16.6325 28.0365 15.2351 26.2189 14.6593 24.0862C14.0835 21.9535 14.3769 19.6796 15.4742 17.7623Z" fill="#EE1E24"/>
<mask id="mask5_546_30451" style="mask-type:luminance" maskUnits="userSpaceOnUse" x="14" y="16" width="17" height="15">
<path d="M15.4742 17.7623C15.6457 17.4664 15.8343 17.1807 16.0391 16.9067C15.2445 18.7827 15.1631 20.8845 15.8103 22.8163C16.4575 24.7482 17.7887 26.3767 19.5531 27.3953C21.3176 28.4139 23.3936 28.7522 25.3902 28.3466C27.3867 27.941 29.1661 26.8194 30.3933 25.1931C30.2594 25.5082 30.1066 25.8148 29.9357 26.1114C28.8241 28.0204 27.0013 29.4111 24.8665 29.9789C22.7317 30.5468 20.4588 30.2455 18.5457 29.141C16.6325 28.0365 15.2351 26.2189 14.6593 24.0862C14.0835 21.9535 14.3769 19.6796 15.4742 17.7623Z" fill="white"/>
</mask>
<g mask="url(#mask5_546_30451)">
<path d="M22.6924 30.3112C27.3025 30.3112 31.0398 26.5739 31.0398 21.9637C31.0398 17.3535 27.3025 13.6162 22.6924 13.6162C18.0822 13.6162 14.3449 17.3535 14.3449 21.9637C14.3449 26.5739 18.0822 30.3112 22.6924 30.3112Z" fill="#EE1E24"/>
</g>
<path d="M46.5084 19.8556C46.3577 20.2767 46.155 20.6773 45.905 21.0481C45.6769 21.3866 45.4141 21.7004 45.1208 21.9843C44.848 22.2471 44.5467 22.4786 44.2225 22.6745C43.9241 22.8556 43.6109 23.0112 43.2863 23.1398C42.9941 23.2561 42.6919 23.3457 42.3835 23.4074C42.1188 23.4621 41.8495 23.4912 41.5792 23.4942H32.9308L33.7468 21.2525H42.3953C42.8084 21.2588 43.2114 21.1248 43.5385 20.8724C43.875 20.6116 44.1281 20.2582 44.2667 19.8556C44.3373 19.6741 44.3754 19.4817 44.3792 19.2871C44.3828 19.1308 44.3457 18.9762 44.2713 18.8387C44.1965 18.7098 44.0834 18.6073 43.9478 18.5455C43.7817 18.4727 43.6016 18.4376 43.4203 18.4427H38.2616C37.8859 18.4401 37.5133 18.3743 37.1595 18.2481C36.7967 18.1257 36.4723 17.9104 36.2186 17.6236C35.9491 17.3029 35.7799 16.91 35.7323 16.4938C35.6788 15.9118 35.7691 15.3256 35.9952 14.7867C36.2107 14.163 36.5417 13.5854 36.971 13.0842C37.3496 12.6456 37.7905 12.265 38.2796 11.9544C38.7128 11.6781 39.1839 11.4662 39.678 11.3253C40.0819 11.2053 40.5001 11.1399 40.9213 11.1306H48.5529L47.7368 13.3723H40.1104C39.6982 13.3678 39.297 13.5047 38.9734 13.7601C38.636 14.025 38.3821 14.3816 38.2421 14.7872C38.1641 14.9458 38.1224 15.1197 38.12 15.2964C38.1176 15.473 38.1546 15.6481 38.2282 15.8087C38.3244 15.943 38.4552 16.0487 38.6066 16.1148C38.7581 16.1809 38.9245 16.2048 39.0884 16.1841H44.26C44.5066 16.1913 44.7517 16.2244 44.9913 16.2827C45.2378 16.3426 45.4746 16.4368 45.6949 16.5626C45.9164 16.6886 46.1156 16.8503 46.2845 17.0412C46.4612 17.2432 46.5938 17.4799 46.6738 17.7361C46.7649 18.0377 46.7997 18.3535 46.7765 18.6677C46.745 19.0745 46.6547 19.4746 46.5084 19.8556ZM61.9872 16.3037C61.5086 17.6479 60.5824 18.7865 59.364 19.5289C59.0209 19.7387 58.66 19.9178 58.2855 20.0641C57.9483 20.196 57.5999 20.2972 57.2445 20.3666C56.942 20.4264 56.6346 20.4579 56.3262 20.4605H51.2548L52.0708 18.2188H57.1412C57.4295 18.1975 57.7138 18.1383 57.9866 18.0427C58.2497 17.9501 58.4984 17.8206 58.7251 17.658C58.953 17.4948 59.1553 17.2985 59.3254 17.0756C59.504 16.8419 59.6456 16.5821 59.745 16.3053L60.1158 15.2884C60.1859 15.0356 60.2205 14.7743 60.2185 14.5119C60.2192 14.301 60.1661 14.0933 60.0644 13.9085C59.9631 13.7379 59.8133 13.6013 59.6341 13.5161C59.4065 13.4136 59.1584 13.3647 58.9089 13.3734H53.8549C53.581 13.3655 53.312 13.4471 53.0887 13.606C52.866 13.7771 52.6998 14.0111 52.6116 14.2777L49.257 23.4962H47.0153L50.3699 14.2777C50.5577 13.7403 50.8454 13.2432 51.2178 12.8125C51.547 12.4322 51.9313 12.1033 52.3579 11.8368C52.7362 11.6 53.1462 11.4183 53.5756 11.297C53.926 11.1934 54.2887 11.1368 54.654 11.1286H59.7245C60.1632 11.1183 60.6004 11.1841 61.0166 11.3232C61.3409 11.4343 61.6393 11.6101 61.8938 11.8399C62.1177 12.0478 62.293 12.3026 62.4073 12.5861C62.5204 12.8691 62.592 13.1669 62.62 13.4704C62.649 13.7811 62.6378 14.0942 62.5866 14.402C62.5384 14.7031 62.4626 14.9992 62.3601 15.2864L61.9872 16.3037ZM73.4171 23.4937H71.1754L72.2806 20.4585H64.3979L63.2927 23.4937H61.051L63.302 17.3108C63.6273 16.4137 64.0902 15.5727 64.6742 14.818C65.2468 14.0736 65.9224 13.4144 66.6807 12.8603C67.4218 12.3198 68.2375 11.8897 69.1022 11.5836C69.9472 11.2823 70.8375 11.1275 71.7347 11.126H76.7887C76.9305 11.1227 77.0712 11.1524 77.1995 11.2128C77.3117 11.2661 77.4065 11.35 77.4733 11.4547C77.5399 11.5632 77.5775 11.687 77.5827 11.8142C77.5885 11.9641 77.5632 12.1136 77.5082 12.2533L73.4171 23.4937ZM65.214 18.2163H73.0961L74.8608 13.3692H70.9197C70.8514 13.3692 70.7024 13.38 70.4729 13.3995C70.1954 13.4281 69.9207 13.4784 69.6512 13.55C69.2906 13.6448 68.9383 13.7688 68.5978 13.9208C68.1905 14.1024 67.8075 14.3343 67.4577 14.611C66.5748 15.3086 65.9107 16.2449 65.5442 17.3088L65.214 18.2163ZM87.1945 23.4937H79.1074C78.7814 23.4911 78.4579 23.4356 78.1496 23.3293C77.8164 23.2253 77.5204 23.027 77.2976 22.7583C77.0747 22.4896 76.9345 22.162 76.894 21.8153C76.8435 21.3147 76.9192 20.8094 77.1143 20.3455L80.0585 12.2564C80.1165 12.0977 80.1995 11.9495 80.3045 11.8173C80.4111 11.6815 80.5352 11.5606 80.6738 11.4577C80.8096 11.3558 80.9596 11.2743 81.1191 11.2159C81.2728 11.1591 81.4353 11.1297 81.5992 11.1291H91.6975L90.8814 13.3708H81.894L79.3545 20.347C79.3013 20.4509 79.2726 20.5656 79.2705 20.6823C79.2683 20.7989 79.2929 20.9146 79.3421 21.0203C79.4134 21.1067 79.5055 21.1733 79.6098 21.2141C79.714 21.2548 79.827 21.2682 79.9379 21.253H88.0085L87.1945 23.4937ZM88.026 18.4412H80.948L81.7697 16.1815H88.8477L88.026 18.4412ZM104.704 15.2843C104.225 16.6284 103.299 17.7671 102.081 18.5095C101.737 18.7194 101.376 18.9 101.002 19.0493C100.665 19.1842 100.316 19.2866 99.9597 19.3548C99.6572 19.4149 99.3498 19.4465 99.0414 19.4493L102.252 23.4937H98.7862L95.5836 19.4493H93.971L94.7871 17.2076H99.8575C100.143 17.1857 100.424 17.1264 100.694 17.0315C100.958 16.9383 101.208 16.8088 101.437 16.6468C101.666 16.4844 101.87 16.288 102.04 16.0644C102.22 15.8275 102.362 15.5646 102.463 15.2848L102.976 13.8715C103.016 13.7804 103.035 13.6821 103.034 13.5829C103.031 13.5271 103.007 13.4744 102.967 13.4355C102.929 13.4036 102.882 13.3841 102.832 13.3795C102.783 13.3736 102.734 13.3705 102.685 13.3703H95.2873L91.603 23.4947H89.3613L93.4513 12.2579C93.5092 12.0993 93.5923 11.951 93.6973 11.8188C93.8038 11.683 93.928 11.5621 94.0665 11.4593C94.2023 11.3574 94.3524 11.2759 94.5118 11.2174C94.6655 11.1606 94.8281 11.1312 94.992 11.1306H103.504C103.911 11.1081 104.317 11.2025 104.673 11.4028C104.935 11.5641 105.142 11.8017 105.265 12.0838C105.383 12.3625 105.432 12.6651 105.41 12.9666C105.392 13.2696 105.331 13.5685 105.229 13.854L104.704 15.2843ZM118.766 18.4931C118.496 19.2412 118.109 19.9424 117.622 20.571C117.143 21.1924 116.58 21.7438 115.948 22.2092C115.33 22.6645 114.648 23.026 113.924 23.2821C113.219 23.5349 112.476 23.665 111.728 23.6667H108.692C108.031 23.6835 107.375 23.5521 106.771 23.2821C106.261 23.0513 105.828 22.6789 105.523 22.2092C105.22 21.7153 105.052 21.1503 105.037 20.571C105.018 19.8609 105.142 19.1543 105.401 18.4931L106.262 16.1307C106.534 15.3835 106.921 14.6834 107.409 14.0559C107.888 13.4336 108.453 12.882 109.087 12.4176C109.707 11.9634 110.391 11.6019 111.116 11.3448C111.822 11.0899 112.567 10.9587 113.318 10.957H116.353C117.013 10.9399 117.667 11.0725 118.268 11.3448C118.775 11.5788 119.206 11.9506 119.512 12.4176C119.816 12.9107 119.982 13.4765 119.993 14.0559C120.008 14.7648 119.884 15.4698 119.627 16.1307L118.766 18.4931ZM117.383 16.1307C117.534 15.7478 117.611 15.3399 117.61 14.9284C117.61 14.6026 117.521 14.2829 117.353 14.004C117.181 13.7405 116.936 13.5337 116.646 13.4098C116.297 13.2606 115.919 13.1886 115.539 13.1987H112.503C112.071 13.1976 111.642 13.269 111.233 13.4098C110.824 13.5498 110.439 13.75 110.09 14.004C109.734 14.2641 109.419 14.5756 109.155 14.9284C108.879 15.2943 108.661 15.6996 108.506 16.1307L107.646 18.4931C107.495 18.876 107.418 19.2839 107.419 19.6953C107.419 20.0219 107.51 20.342 107.682 20.6197C107.856 20.8824 108.103 21.0888 108.392 21.2139C108.745 21.3636 109.126 21.4356 109.509 21.425H112.526C112.958 21.426 113.388 21.3547 113.797 21.2139C114.205 21.074 114.591 20.8737 114.94 20.6197C115.296 20.3597 115.611 20.0481 115.875 19.6953C116.15 19.3295 116.369 18.9242 116.524 18.4931L117.383 16.1307Z" fill="#EE1E24"/>
<path d="M15.2056 15.3968C15.2056 15.3968 16.224 17.0351 16.5476 15.2556C16.4489 15.826 16.2784 16.3817 16.0402 16.9093C16.0402 16.9093 15.4367 15.7122 15.2056 15.3968Z" fill="#EE1E24"/>
<path d="M14.313 16.8732C14.313 16.8732 16.2405 16.811 14.8615 15.6406C15.3063 16.0109 15.7022 16.4363 16.0396 16.9066C16.0396 16.9066 14.7039 16.8321 14.313 16.8732Z" fill="#EE1E24"/>
<path d="M15.1476 18.3858C15.1476 18.3858 16.0566 16.6849 14.3541 17.2945C14.8973 17.0943 15.4636 16.964 16.0396 16.9067C16.0396 16.9067 15.3073 18.0268 15.1476 18.3858Z" fill="#EE1E24"/>
<path d="M16.8742 18.4192C16.8742 18.4192 15.8558 16.7809 15.5322 18.5604C15.631 17.99 15.8014 17.4344 16.0396 16.9067C16.0396 16.9067 16.6431 18.1013 16.8742 18.4192Z" fill="#EE1E24"/>
<path d="M17.7663 16.9401C17.7663 16.9401 15.8388 17.0023 17.2178 18.1727C16.773 17.8024 16.3771 17.377 16.0396 16.9067C16.0396 16.9067 17.377 16.9812 17.7663 16.9401Z" fill="#EE1E24"/>
<path d="M16.9317 15.428C16.9317 15.428 16.0227 17.1289 17.7252 16.5193C17.182 16.7194 16.6156 16.8497 16.0396 16.907C16.0396 16.907 16.7735 15.7864 16.9317 15.428Z" fill="#EE1E24"/>
</svg>
