<svg width="120" height="34" viewBox="0 0 120 34" fill="none" xmlns="http://www.w3.org/2000/svg">
<g clip-path="url(#clip0_382_6592)">
<path d="M15.0172 16.5732C15.3592 16.5731 15.7008 16.5939 16.0402 16.6354C14.0183 16.885 12.1574 17.8653 10.808 19.3915C9.45859 20.9178 8.71374 22.8847 8.71374 24.922C8.71374 26.9593 9.45859 28.9262 10.808 30.4525C12.1574 31.9788 14.0183 32.959 16.0402 33.2086C14.9094 33.348 13.762 33.2543 12.6687 32.9336C11.5754 32.6128 10.5593 32.0716 9.68302 31.3433C8.80673 30.6151 8.08878 29.7152 7.57336 28.699C7.05794 27.6829 6.75597 26.572 6.68603 25.4347C6.61609 24.2975 6.77967 23.158 7.1667 22.0863C7.55372 21.0147 8.15601 20.0336 8.93646 19.2034C9.71691 18.3733 10.659 17.7117 11.7048 17.2594C12.7505 16.807 13.8778 16.5735 15.0172 16.5732Z" fill="white"/>
<mask id="mask0_382_6592" style="mask-type:luminance" maskUnits="userSpaceOnUse" x="6" y="16" width="11" height="18">
<path d="M15.0172 16.5732C15.3592 16.5731 15.7008 16.5939 16.0402 16.6354C14.0183 16.885 12.1574 17.8653 10.808 19.3915C9.45859 20.9178 8.71374 22.8847 8.71374 24.922C8.71374 26.9593 9.45859 28.9262 10.808 30.4525C12.1574 31.9788 14.0183 32.959 16.0402 33.2086C14.9094 33.348 13.762 33.2543 12.6687 32.9336C11.5754 32.6128 10.5593 32.0716 9.68302 31.3433C8.80673 30.6151 8.08878 29.7152 7.57336 28.699C7.05794 27.6829 6.75597 26.572 6.68603 25.4347C6.61609 24.2975 6.77967 23.158 7.1667 22.0863C7.55372 21.0147 8.15601 20.0336 8.93646 19.2034C9.71691 18.3733 10.659 17.7117 11.7048 17.2594C12.7505 16.807 13.8778 16.5735 15.0172 16.5732Z" fill="white"/>
</mask>
<g mask="url(#mask0_382_6592)">
<path d="M23.3257 25.3031C23.5346 20.6977 19.9705 16.7949 15.365 16.586C10.7596 16.3771 6.85677 19.9412 6.64788 24.5467C6.43899 29.1521 10.0031 33.0549 14.6086 33.2638C19.214 33.4727 23.1168 29.9086 23.3257 25.3031Z" fill="white"/>
</g>
<path d="M15.5816 15.7177C15.7528 16.014 15.9056 16.3207 16.0391 16.6359C14.812 15.0096 13.0326 13.888 11.036 13.4824C9.03946 13.0768 6.96348 13.4151 5.19902 14.4337C3.43456 15.4523 2.10338 17.0809 1.45616 19.0127C0.808939 20.9445 0.890334 23.0463 1.68502 24.9223C0.998382 24.0125 0.505265 22.9719 0.23604 21.8643C-0.0331849 20.7568 -0.0728174 19.6059 0.119585 18.4824C0.311987 17.359 0.732349 16.2869 1.35478 15.332C1.97721 14.3772 2.78853 13.5599 3.73877 12.9305C4.68901 12.3011 5.75804 11.8729 6.88003 11.6723C8.00202 11.4717 9.1532 11.5029 10.2627 11.764C11.3721 12.0251 12.4164 12.5106 13.3312 13.1905C14.2459 13.8705 15.0118 14.7305 15.5816 15.7177Z" fill="white"/>
<mask id="mask1_382_6592" style="mask-type:luminance" maskUnits="userSpaceOnUse" x="-1" y="11" width="18" height="14">
<path d="M15.5816 15.7177C15.7528 16.014 15.9056 16.3207 16.0391 16.6359C14.812 15.0096 13.0326 13.888 11.036 13.4824C9.03946 13.0768 6.96348 13.4151 5.19902 14.4337C3.43456 15.4523 2.10338 17.0809 1.45616 19.0127C0.808939 20.9445 0.890334 23.0463 1.68502 24.9223C0.998382 24.0125 0.505265 22.9719 0.23604 21.8643C-0.0331849 20.7568 -0.0728174 19.6059 0.119585 18.4824C0.311987 17.359 0.732349 16.2869 1.35478 15.332C1.97721 14.3772 2.78853 13.5599 3.73877 12.9305C4.68901 12.3011 5.75804 11.8729 6.88003 11.6723C8.00202 11.4717 9.1532 11.5029 10.2627 11.764C11.3721 12.0251 12.4164 12.5106 13.3312 13.1905C14.2459 13.8705 15.0118 14.7305 15.5816 15.7177Z" fill="white"/>
</mask>
<g mask="url(#mask1_382_6592)">
<path d="M8.33368 28.2163C12.9439 28.2163 16.6812 24.479 16.6812 19.8688C16.6812 15.2586 12.9439 11.5213 8.33368 11.5213C3.7235 11.5213 -0.0137939 15.2586 -0.0137939 19.8688C-0.0137939 24.479 3.7235 28.2163 8.33368 28.2163Z" fill="white"/>
</g>
<path d="M16.6046 15.7793C16.4331 16.0753 16.2445 16.361 16.0397 16.6349C16.8344 14.7589 16.9158 12.6571 16.2685 10.7253C15.6213 8.79346 14.2901 7.16493 12.5257 6.14634C10.7612 5.12775 8.68523 4.7894 6.68866 5.19501C4.69208 5.60062 2.91268 6.72219 1.68555 8.34853C1.81937 8.03347 1.97218 7.72682 2.14313 7.43027C3.25998 5.53184 5.08173 4.15162 7.21157 3.59023C9.34141 3.02884 11.6068 3.33177 13.5143 4.43303C15.4218 5.53429 16.8169 7.34468 17.3957 9.46985C17.9746 11.595 17.6902 13.8628 16.6046 15.7793Z" fill="white"/>
<mask id="mask2_382_6592" style="mask-type:luminance" maskUnits="userSpaceOnUse" x="1" y="3" width="17" height="14">
<path d="M16.6046 15.7793C16.4331 16.0753 16.2445 16.361 16.0397 16.6349C16.8344 14.7589 16.9158 12.6571 16.2685 10.7253C15.6213 8.79346 14.2901 7.16493 12.5257 6.14634C10.7612 5.12775 8.68523 4.7894 6.68866 5.19501C4.69208 5.60062 2.91268 6.72219 1.68555 8.34853C1.81937 8.03347 1.97218 7.72682 2.14313 7.43027C3.25998 5.53184 5.08173 4.15162 7.21157 3.59023C9.34141 3.02884 11.6068 3.33177 13.5143 4.43303C15.4218 5.53429 16.8169 7.34468 17.3957 9.46985C17.9746 11.595 17.6902 13.8628 16.6046 15.7793Z" fill="white"/>
</mask>
<g mask="url(#mask2_382_6592)">
<path d="M9.38691 19.9263C13.9971 19.9263 17.7344 16.189 17.7344 11.5789C17.7344 6.96868 13.9971 3.23138 9.38691 3.23138C4.77672 3.23138 1.03943 6.96868 1.03943 11.5789C1.03943 16.189 4.77672 19.9263 9.38691 19.9263Z" fill="white"/>
</g>
<path d="M17.0643 16.698C16.7223 16.6982 16.3807 16.6774 16.0413 16.6359C18.0632 16.3863 19.9241 15.406 21.2735 13.8798C22.6229 12.3535 23.3678 10.3865 23.3678 8.34928C23.3678 6.31201 22.6229 4.34504 21.2735 2.81878C19.9241 1.29251 18.0632 0.312273 16.0413 0.062655C17.1721 -0.076671 18.3195 0.0169441 19.4128 0.337735C20.5061 0.658526 21.5222 1.19971 22.3985 1.92795C23.2748 2.6562 23.9927 3.5561 24.5081 4.57225C25.0235 5.58841 25.3255 6.6993 25.3955 7.83655C25.4654 8.9738 25.3018 10.1133 24.9148 11.185C24.5278 12.2566 23.9255 13.2377 23.145 14.0679C22.3646 14.898 21.4225 15.5596 20.3767 16.0119C19.331 16.4643 18.2037 16.6978 17.0643 16.698Z" fill="white"/>
<mask id="mask3_382_6592" style="mask-type:luminance" maskUnits="userSpaceOnUse" x="16" y="0" width="10" height="17">
<path d="M17.0643 16.698C16.7223 16.6982 16.3807 16.6774 16.0413 16.6359C18.0632 16.3863 19.9241 15.406 21.2735 13.8798C22.6229 12.3535 23.3678 10.3865 23.3678 8.34928C23.3678 6.31201 22.6229 4.34504 21.2735 2.81878C19.9241 1.29251 18.0632 0.312273 16.0413 0.062655C17.1721 -0.076671 18.3195 0.0169441 19.4128 0.337735C20.5061 0.658526 21.5222 1.19971 22.3985 1.92795C23.2748 2.6562 23.9927 3.5561 24.5081 4.57225C25.0235 5.58841 25.3255 6.6993 25.3955 7.83655C25.4654 8.9738 25.3018 10.1133 24.9148 11.185C24.5278 12.2566 23.9255 13.2377 23.145 14.0679C22.3646 14.898 21.4225 15.5596 20.3767 16.0119C19.331 16.4643 18.2037 16.6978 17.0643 16.698Z" fill="white"/>
</mask>
<g mask="url(#mask3_382_6592)">
<path d="M17.0931 16.6934C21.7033 16.6934 25.4406 12.9561 25.4406 8.34595C25.4406 3.73577 21.7033 -0.00152588 17.0931 -0.00152588C12.4829 -0.00152588 8.74561 3.73577 8.74561 8.34595C8.74561 12.9561 12.4829 16.6934 17.0931 16.6934Z" fill="white"/>
</g>
<path d="M16.4973 17.5521C16.326 17.2557 16.1732 16.949 16.0397 16.6338C17.2668 18.2602 19.0462 19.3817 21.0428 19.7873C23.0394 20.193 25.1153 19.8546 26.8798 18.836C28.6443 17.8174 29.9754 16.1889 30.6227 14.2571C31.2699 12.3253 31.1885 10.2235 30.3938 8.34747C31.0804 9.25722 31.5736 10.2979 31.8428 11.4054C32.112 12.513 32.1516 13.6639 31.9592 14.7873C31.7668 15.9107 31.3465 16.9829 30.724 17.9377C30.1016 18.8925 29.2903 19.7098 28.3401 20.3392C27.3898 20.9686 26.3208 21.3968 25.1988 21.5974C24.0768 21.7981 22.9256 21.7669 21.8161 21.5058C20.7067 21.2446 19.6624 20.7592 18.7477 20.0792C17.8329 19.3993 17.067 18.5392 16.4973 17.5521Z" fill="white"/>
<mask id="mask4_382_6592" style="mask-type:luminance" maskUnits="userSpaceOnUse" x="16" y="8" width="17" height="14">
<path d="M16.4973 17.5521C16.326 17.2557 16.1732 16.949 16.0397 16.6338C17.2668 18.2602 19.0462 19.3817 21.0428 19.7873C23.0394 20.193 25.1153 19.8546 26.8798 18.836C28.6443 17.8174 29.9754 16.1889 30.6227 14.2571C31.2699 12.3253 31.1885 10.2235 30.3938 8.34747C31.0804 9.25722 31.5736 10.2979 31.8428 11.4054C32.112 12.513 32.1516 13.6639 31.9592 14.7873C31.7668 15.9107 31.3465 16.9829 30.724 17.9377C30.1016 18.8925 29.2903 19.7098 28.3401 20.3392C27.3898 20.9686 26.3208 21.3968 25.1988 21.5974C24.0768 21.7981 22.9256 21.7669 21.8161 21.5058C20.7067 21.2446 19.6624 20.7592 18.7477 20.0792C17.8329 19.3993 17.067 18.5392 16.4973 17.5521Z" fill="white"/>
</mask>
<g mask="url(#mask4_382_6592)">
<path d="M23.7457 21.7505C28.3559 21.7505 32.0931 18.0132 32.0931 13.403C32.0931 8.79283 28.3559 5.05554 23.7457 5.05554C19.1355 5.05554 15.3982 8.79283 15.3982 13.403C15.3982 18.0132 19.1355 21.7505 23.7457 21.7505Z" fill="white"/>
</g>
<path d="M15.4743 17.491C15.6457 17.195 15.8344 16.9093 16.0392 16.6354C15.2445 18.5114 15.1631 20.6132 15.8103 22.545C16.4576 24.4768 17.7888 26.1053 19.5532 27.1239C21.3177 28.1425 23.3937 28.4809 25.3902 28.0753C27.3868 27.6696 29.1662 26.5481 30.3933 24.9217C30.2595 25.2368 30.1067 25.5434 29.9358 25.84C28.8242 27.749 27.0014 29.1397 24.8666 29.7076C22.7317 30.2754 20.4589 29.9741 18.5457 28.8696C16.6326 27.7652 15.2351 25.9476 14.6594 23.8149C14.0836 21.6822 14.3769 19.4082 15.4743 17.491Z" fill="white"/>
<mask id="mask5_382_6592" style="mask-type:luminance" maskUnits="userSpaceOnUse" x="14" y="16" width="17" height="14">
<path d="M15.4743 17.491C15.6457 17.195 15.8344 16.9093 16.0392 16.6354C15.2445 18.5114 15.1631 20.6132 15.8103 22.545C16.4576 24.4768 17.7888 26.1053 19.5532 27.1239C21.3177 28.1425 23.3937 28.4809 25.3902 28.0753C27.3868 27.6696 29.1662 26.5481 30.3933 24.9217C30.2595 25.2368 30.1067 25.5434 29.9358 25.84C28.8242 27.749 27.0014 29.1397 24.8666 29.7076C22.7317 30.2754 20.4589 29.9741 18.5457 28.8696C16.6326 27.7652 15.2351 25.9476 14.6594 23.8149C14.0836 21.6822 14.3769 19.4082 15.4743 17.491Z" fill="white"/>
</mask>
<g mask="url(#mask5_382_6592)">
<path d="M22.6924 30.0399C27.3026 30.0399 31.0399 26.3026 31.0399 21.6924C31.0399 17.0823 27.3026 13.345 22.6924 13.345C18.0823 13.345 14.345 17.0823 14.345 21.6924C14.345 26.3026 18.0823 30.0399 22.6924 30.0399Z" fill="white"/>
</g>
<path d="M46.5084 19.5843C46.3577 20.0054 46.155 20.406 45.905 20.7768C45.6769 21.1153 45.4141 21.4291 45.1207 21.713C44.848 21.9758 44.5467 22.2073 44.2225 22.4032C43.9241 22.5843 43.6109 22.7399 43.2863 22.8685C42.9941 22.9848 42.6919 23.0744 42.3835 23.1361C42.1188 23.1908 41.8495 23.2199 41.5792 23.2229H32.9308L33.7468 20.9812H42.3953C42.8083 20.9875 43.2114 20.8535 43.5385 20.6011C43.875 20.3403 44.1281 19.9869 44.2667 19.5843C44.3373 19.4028 44.3754 19.2104 44.3792 19.0158C44.3828 18.8595 44.3457 18.7049 44.2713 18.5674C44.1965 18.4385 44.0834 18.336 43.9478 18.2742C43.7817 18.2014 43.6016 18.1663 43.4203 18.1714H38.2616C37.8859 18.1688 37.5133 18.103 37.1595 17.9768C36.7967 17.8544 36.4723 17.6391 36.2186 17.3523C35.9491 17.0316 35.7799 16.6387 35.7323 16.2225C35.6788 15.6405 35.7691 15.0543 35.9952 14.5154C36.2107 13.8917 36.5417 13.3141 36.971 12.8129C37.3496 12.3743 37.7905 11.9937 38.2796 11.6831C38.7128 11.4068 39.1839 11.1949 39.678 11.054C40.0819 10.934 40.5001 10.8686 40.9213 10.8593H48.5529L47.7368 13.101H40.1104C39.6982 13.0965 39.2969 13.2334 38.9734 13.4888C38.636 13.7537 38.3821 14.1103 38.2421 14.5159C38.1641 14.6745 38.1224 14.8484 38.12 15.0251C38.1176 15.2017 38.1546 15.3768 38.2282 15.5374C38.3244 15.6717 38.4552 15.7774 38.6066 15.8435C38.758 15.9096 38.9245 15.9335 39.0884 15.9128H44.26C44.5066 15.92 44.7517 15.9531 44.9913 16.0114C45.2378 16.0713 45.4746 16.1655 45.6949 16.2913C45.9164 16.4173 46.1156 16.579 46.2845 16.7699C46.4612 16.9719 46.5938 17.2086 46.6738 17.4648C46.7649 17.7664 46.7997 18.0822 46.7765 18.3964C46.745 18.8032 46.6547 19.2033 46.5084 19.5843ZM61.9872 16.0324C61.5086 17.3766 60.5824 18.5152 59.364 19.2576C59.0209 19.4674 58.66 19.6465 58.2855 19.7928C57.9483 19.9247 57.5999 20.0259 57.2445 20.0953C56.942 20.1551 56.6346 20.1866 56.3262 20.1892H51.2548L52.0708 17.9475H57.1412C57.4295 17.9262 57.7138 17.867 57.9866 17.7714C58.2497 17.6788 58.4984 17.5493 58.7251 17.3867C58.953 17.2235 59.1553 17.0272 59.3254 16.8043C59.504 16.5706 59.6456 16.3108 59.745 16.034L60.1158 15.0171C60.1859 14.7643 60.2205 14.503 60.2185 14.2406C60.2191 14.0297 60.1661 13.822 60.0644 13.6372C59.9631 13.4666 59.8133 13.33 59.6341 13.2448C59.4065 13.1423 59.1584 13.0934 58.9089 13.102H53.8549C53.581 13.0942 53.312 13.1758 53.0887 13.3347C52.866 13.5058 52.6998 13.7398 52.6116 14.0064L49.257 23.2249H47.0153L50.3699 14.0064C50.5577 13.469 50.8454 12.9719 51.2178 12.5412C51.547 12.1609 51.9313 11.832 52.3579 11.5655C52.7362 11.3287 53.1461 11.147 53.5756 11.0257C53.926 10.9221 54.2887 10.8655 54.654 10.8573H59.7245C60.1632 10.847 60.6004 10.9128 61.0166 11.0519C61.3409 11.163 61.6393 11.3388 61.8938 11.5685C62.1177 11.7765 62.293 12.0313 62.4073 12.3148C62.5204 12.5978 62.592 12.8956 62.6199 13.1991C62.649 13.5098 62.6378 13.8229 62.5866 14.1307C62.5384 14.4318 62.4626 14.7279 62.3601 15.0151L61.9872 16.0324ZM73.4171 23.2224H71.1754L72.2806 20.1872H64.3979L63.2927 23.2224H61.051L63.302 17.0395C63.6273 16.1424 64.0902 15.3014 64.6742 14.5467C65.2468 13.8023 65.9224 13.1431 66.6807 12.589C67.4218 12.0485 68.2375 11.6184 69.1022 11.3123C69.9472 11.011 70.8375 10.8562 71.7347 10.8547H76.7887C76.9305 10.8514 77.0712 10.8811 77.1995 10.9415C77.3117 10.9948 77.4065 11.0787 77.4733 11.1834C77.5399 11.2919 77.5775 11.4156 77.5827 11.5429C77.5885 11.6928 77.5632 11.8423 77.5082 11.982L73.4171 23.2224ZM65.214 17.945H73.0961L74.8608 13.0979H70.9197C70.8514 13.0979 70.7024 13.1087 70.4729 13.1282C70.1954 13.1568 69.9207 13.2071 69.6512 13.2787C69.2906 13.3735 68.9383 13.4975 68.5978 13.6495C68.1905 13.8311 67.8075 14.063 67.4577 14.3397C66.5748 15.0373 65.9107 15.9736 65.5442 17.0375L65.214 17.945ZM87.1945 23.2224H79.1074C78.7814 23.2198 78.4579 23.1643 78.1496 23.058C77.8164 22.954 77.5204 22.7557 77.2976 22.487C77.0747 22.2183 76.9345 21.8907 76.894 21.544C76.8435 21.0434 76.9192 20.538 77.1143 20.0742L80.0585 11.9851C80.1165 11.8264 80.1995 11.6782 80.3045 11.5459C80.4111 11.4102 80.5352 11.2893 80.6738 11.1864C80.8096 11.0845 80.9596 11.003 81.1191 10.9446C81.2728 10.8878 81.4353 10.8584 81.5992 10.8578H91.6975L90.8814 13.0995H81.894L79.3544 20.0757C79.3013 20.1796 79.2726 20.2943 79.2705 20.411C79.2683 20.5276 79.2928 20.6433 79.3421 20.749C79.4134 20.8354 79.5055 20.902 79.6098 20.9427C79.714 20.9835 79.827 20.9969 79.9379 20.9817H88.0085L87.1945 23.2224ZM88.026 18.1699H80.948L81.7697 15.9102H88.8477L88.026 18.1699ZM104.704 15.013C104.225 16.3571 103.299 17.4958 102.081 18.2382C101.737 18.4481 101.376 18.6287 101.002 18.778C100.665 18.9129 100.316 19.0153 99.9597 19.0835C99.6572 19.1436 99.3498 19.1752 99.0414 19.178L102.252 23.2224H98.7862L95.5836 19.178H93.971L94.7871 16.9363H99.8575C100.143 16.9144 100.424 16.8551 100.694 16.7602C100.958 16.667 101.208 16.5375 101.437 16.3755C101.666 16.2131 101.87 16.0167 102.04 15.7931C102.22 15.5562 102.362 15.2933 102.463 15.0135L102.976 13.6002C103.016 13.5091 103.035 13.4108 103.034 13.3116C103.031 13.2558 103.007 13.2031 102.967 13.1642C102.929 13.1323 102.882 13.1128 102.832 13.1082C102.783 13.1023 102.734 13.0992 102.685 13.099H95.2873L91.603 23.2234H89.3613L93.4513 11.9866C93.5092 11.828 93.5923 11.6797 93.6973 11.5475C93.8038 11.4117 93.928 11.2908 94.0665 11.188C94.2023 11.086 94.3524 11.0045 94.5118 10.9461C94.6655 10.8893 94.8281 10.8599 94.992 10.8593H103.504C103.911 10.8368 104.317 10.9312 104.673 11.1315C104.935 11.2928 105.142 11.5304 105.265 11.8125C105.383 12.0912 105.432 12.3938 105.41 12.6953C105.392 12.9983 105.331 13.2972 105.229 13.5827L104.704 15.013ZM118.766 18.2218C118.496 18.9699 118.109 19.6711 117.622 20.2997C117.143 20.9211 116.58 21.4725 115.948 21.9379C115.33 22.3932 114.648 22.7547 113.924 23.0108C113.219 23.2636 112.476 23.3937 111.728 23.3954H108.692C108.031 23.4122 107.375 23.2808 106.771 23.0108C106.261 22.78 105.828 22.4076 105.523 21.9379C105.22 21.444 105.052 20.879 105.037 20.2997C105.018 19.5896 105.142 18.883 105.401 18.2218L106.262 15.8594C106.534 15.1122 106.921 14.4121 107.409 13.7846C107.888 13.1623 108.453 12.6107 109.087 12.1463C109.707 11.6921 110.391 11.3306 111.116 11.0735C111.822 10.8186 112.567 10.6874 113.318 10.6857H116.353C117.013 10.6686 117.667 10.8012 118.268 11.0735C118.775 11.3075 119.206 11.6793 119.512 12.1463C119.816 12.6394 119.982 13.2052 119.993 13.7846C120.008 14.4935 119.884 15.1985 119.627 15.8594L118.766 18.2218ZM117.383 15.8594C117.534 15.4765 117.611 15.0686 117.61 14.6571C117.61 14.3313 117.521 14.0116 117.353 13.7327C117.181 13.4692 116.936 13.2624 116.646 13.1385C116.297 12.9893 115.919 12.9173 115.539 12.9274H112.503C112.071 12.9263 111.642 12.9977 111.233 13.1385C110.824 13.2785 110.439 13.4787 110.09 13.7327C109.734 13.9928 109.419 14.3043 109.155 14.6571C108.879 15.023 108.661 15.4283 108.506 15.8594L107.646 18.2218C107.495 18.6047 107.418 19.0126 107.419 19.424C107.419 19.7506 107.51 20.0707 107.682 20.3484C107.856 20.6111 108.103 20.8175 108.392 20.9426C108.745 21.0923 109.126 21.1643 109.509 21.1537H112.526C112.958 21.1547 113.388 21.0834 113.797 20.9426C114.205 20.8027 114.591 20.6024 114.94 20.3484C115.296 20.0884 115.611 19.7768 115.875 19.424C116.15 19.0582 116.369 18.6529 116.524 18.2218L117.383 15.8594Z" fill="white"/>
<path d="M15.2057 15.1255C15.2057 15.1255 16.2241 16.7638 16.5476 14.9843C16.4489 15.5547 16.2784 16.1103 16.0402 16.6379C16.0402 16.6379 15.4368 15.4408 15.2057 15.1255Z" fill="white"/>
<path d="M14.3131 16.602C14.3131 16.602 16.2405 16.5399 14.8616 15.3694C15.3064 15.7398 15.7023 16.1652 16.0397 16.6354C16.0397 16.6354 14.7039 16.5609 14.3131 16.602Z" fill="white"/>
<path d="M15.1476 18.1144C15.1476 18.1144 16.0566 16.4135 14.3541 17.0231C14.8973 16.823 15.4636 16.6927 16.0396 16.6354C16.0396 16.6354 15.3073 17.7555 15.1476 18.1144Z" fill="white"/>
<path d="M16.8742 18.1478C16.8742 18.1478 15.8558 16.5096 15.5322 18.2891C15.6309 17.7186 15.8014 17.163 16.0396 16.6354C16.0396 16.6354 16.6431 17.8299 16.8742 18.1478Z" fill="white"/>
<path d="M17.7663 16.6688C17.7663 16.6688 15.8389 16.7309 17.2178 17.9013C16.773 17.531 16.3771 17.1056 16.0397 16.6354C16.0397 16.6354 17.377 16.7098 17.7663 16.6688Z" fill="white"/>
<path d="M16.9317 15.1568C16.9317 15.1568 16.0227 16.8577 17.7252 16.2481C17.1821 16.4483 16.6157 16.5786 16.0397 16.6359C16.0397 16.6359 16.7736 15.5153 16.9317 15.1568Z" fill="white"/>
</g>
<defs>
<clipPath id="clip0_382_6592">
<rect width="120" height="33.2713" fill="white"/>
</clipPath>
</defs>
</svg>
